<svg width="44" height="44" viewBox="0 0 44 44" fill="none" xmlns="http://www.w3.org/2000/svg">
<path d="M34.8332 12.8335V9.16681H31.1665V7.33348H34.8332V3.66681H36.6665V7.33348H40.3332V9.16681H36.6665V12.8335H34.8332ZM20.1665 30.6718C22.0817 30.6718 23.7012 30.0118 25.0248 28.6918C26.3448 27.3681 27.0048 25.7487 27.0048 23.8335C27.0048 21.9183 26.3448 20.2988 25.0248 18.9751C23.6999 17.6551 22.0805 16.9951 20.1665 16.9951C18.2525 16.9951 16.6331 17.6551 15.3082 18.9751C13.9882 20.2988 13.3282 21.9183 13.3282 23.8335C13.3282 25.7487 13.9888 27.3681 15.31 28.6918C16.6324 30.0118 18.2513 30.6718 20.1665 30.6718ZM20.1665 28.8385C18.7426 28.8385 17.5522 28.3606 16.5952 27.4048C15.6382 26.449 15.1597 25.2586 15.1597 23.8335C15.1597 22.4096 15.6382 21.2191 16.5952 20.2621C17.5522 19.3051 18.7426 18.8266 20.1665 18.8266C21.5904 18.8266 22.7808 19.3051 23.7378 20.2621C24.6948 21.2191 25.1733 22.4096 25.1733 23.8335C25.1733 25.2574 24.6948 26.4478 23.7378 27.4048C22.7808 28.3618 21.5904 28.8403 20.1665 28.8403M6.62734 36.6668C5.784 36.6668 5.08 36.3845 4.51534 35.8198C3.94945 35.2539 3.6665 34.5493 3.6665 33.706V13.961C3.6665 13.1176 3.94945 12.4136 4.51534 11.849C5.08 11.2831 5.784 11.0001 6.62734 11.0001H12.0503L15.442 7.33348H26.794V13.5393H30.4607V17.206H36.6665V33.706C36.6665 34.5493 36.3842 35.2533 35.8195 35.818C35.2536 36.3839 34.549 36.6668 33.7057 36.6668H6.62734Z" fill="#343434"/>
</svg>
