<svg width="24" height="24" viewBox="0 0 24 24" fill="none" xmlns="http://www.w3.org/2000/svg">
<path d="M15.6947 11.3053C15.8822 11.4928 15.9875 11.7471 15.9875 12.0123C15.9875 12.2775 15.8822 12.5318 15.6947 12.7193L9.69471 18.7193C9.50611 18.9014 9.25351 19.0022 8.99131 19C8.72911 18.9977 8.4783 18.8925 8.29289 18.7071C8.10749 18.5217 8.00232 18.2709 8.00004 18.0087C7.99776 17.7465 8.09855 17.4939 8.28071 17.3053L13.5737 12.0123L8.28071 6.71929C8.09855 6.53069 7.99776 6.27808 8.00004 6.01589C8.00232 5.75369 8.10749 5.50288 8.29289 5.31747C8.4783 5.13206 8.72912 5.02689 8.99131 5.02461C9.25351 5.02234 9.50611 5.12313 9.69471 5.30529L15.6947 11.3053Z" fill="#F87112"/>
</svg>
